<mxfile host="app.diagrams.net" modified="2023-12-15T20:59:35.924Z" agent="Mozilla/5.0 (Windows NT 10.0; Win64; x64) AppleWebKit/537.36 (KHTML, like Gecko) Chrome/120.0.0.0 Safari/537.36" etag="iCiaWBMgnfBf3HygsCzS" version="22.1.11" type="device">
  <diagram name="Página-1" id="CXXf5Gz_wJ88wSYIblcg">
    <mxGraphModel dx="1313" dy="1880" grid="1" gridSize="10" guides="1" tooltips="1" connect="1" arrows="1" fold="1" page="1" pageScale="1" pageWidth="827" pageHeight="1169" math="0" shadow="0">
      <root>
        <mxCell id="0" />
        <mxCell id="1" parent="0" />
        <mxCell id="M_nd08v2FUncdbYxqgyS-10" value="" style="edgeStyle=orthogonalEdgeStyle;rounded=0;orthogonalLoop=1;jettySize=auto;html=1;" edge="1" parent="1" source="M_nd08v2FUncdbYxqgyS-2" target="M_nd08v2FUncdbYxqgyS-5">
          <mxGeometry relative="1" as="geometry" />
        </mxCell>
        <mxCell id="M_nd08v2FUncdbYxqgyS-2" value="Abrir o Instagram" style="strokeWidth=2;html=1;shape=mxgraph.flowchart.start_1;whiteSpace=wrap;fontSize=12;" vertex="1" parent="1">
          <mxGeometry x="40" y="110" width="100" height="60" as="geometry" />
        </mxCell>
        <mxCell id="M_nd08v2FUncdbYxqgyS-3" value="Fechar o Aplicativo." style="strokeWidth=2;html=1;shape=mxgraph.flowchart.terminator;whiteSpace=wrap;" vertex="1" parent="1">
          <mxGeometry x="1200" y="110" width="100" height="60" as="geometry" />
        </mxCell>
        <mxCell id="M_nd08v2FUncdbYxqgyS-7" value="" style="edgeStyle=orthogonalEdgeStyle;rounded=0;orthogonalLoop=1;jettySize=auto;html=1;" edge="1" parent="1" source="M_nd08v2FUncdbYxqgyS-5" target="M_nd08v2FUncdbYxqgyS-6">
          <mxGeometry relative="1" as="geometry" />
        </mxCell>
        <mxCell id="M_nd08v2FUncdbYxqgyS-9" value="" style="edgeStyle=orthogonalEdgeStyle;rounded=0;orthogonalLoop=1;jettySize=auto;html=1;" edge="1" parent="1" source="M_nd08v2FUncdbYxqgyS-5" target="M_nd08v2FUncdbYxqgyS-8">
          <mxGeometry relative="1" as="geometry" />
        </mxCell>
        <mxCell id="M_nd08v2FUncdbYxqgyS-5" value="Postar Foto?" style="rhombus;whiteSpace=wrap;html=1;fontSize=12;" vertex="1" parent="1">
          <mxGeometry x="190" y="100" width="80" height="80" as="geometry" />
        </mxCell>
        <mxCell id="M_nd08v2FUncdbYxqgyS-15" value="" style="edgeStyle=orthogonalEdgeStyle;rounded=0;orthogonalLoop=1;jettySize=auto;html=1;" edge="1" parent="1" source="M_nd08v2FUncdbYxqgyS-6" target="M_nd08v2FUncdbYxqgyS-14">
          <mxGeometry relative="1" as="geometry">
            <Array as="points">
              <mxPoint x="510" y="140" />
              <mxPoint x="510" y="140" />
            </Array>
          </mxGeometry>
        </mxCell>
        <mxCell id="M_nd08v2FUncdbYxqgyS-6" value="Sim" style="whiteSpace=wrap;html=1;fontSize=12;" vertex="1" parent="1">
          <mxGeometry x="360" y="110" width="120" height="60" as="geometry" />
        </mxCell>
        <mxCell id="M_nd08v2FUncdbYxqgyS-12" value="" style="edgeStyle=orthogonalEdgeStyle;rounded=0;orthogonalLoop=1;jettySize=auto;html=1;" edge="1" parent="1" source="M_nd08v2FUncdbYxqgyS-8" target="M_nd08v2FUncdbYxqgyS-11">
          <mxGeometry relative="1" as="geometry" />
        </mxCell>
        <mxCell id="M_nd08v2FUncdbYxqgyS-8" value="Não" style="whiteSpace=wrap;html=1;fontSize=12;" vertex="1" parent="1">
          <mxGeometry x="170" y="270" width="120" height="60" as="geometry" />
        </mxCell>
        <mxCell id="M_nd08v2FUncdbYxqgyS-13" value="" style="edgeStyle=orthogonalEdgeStyle;rounded=0;orthogonalLoop=1;jettySize=auto;html=1;" edge="1" parent="1" source="M_nd08v2FUncdbYxqgyS-11" target="M_nd08v2FUncdbYxqgyS-3">
          <mxGeometry relative="1" as="geometry" />
        </mxCell>
        <mxCell id="M_nd08v2FUncdbYxqgyS-11" value="Visualizar o Feed" style="whiteSpace=wrap;html=1;fontSize=12;" vertex="1" parent="1">
          <mxGeometry x="680" y="270" width="120" height="60" as="geometry" />
        </mxCell>
        <mxCell id="M_nd08v2FUncdbYxqgyS-17" value="" style="edgeStyle=orthogonalEdgeStyle;rounded=0;orthogonalLoop=1;jettySize=auto;html=1;" edge="1" parent="1" source="M_nd08v2FUncdbYxqgyS-14" target="M_nd08v2FUncdbYxqgyS-16">
          <mxGeometry relative="1" as="geometry" />
        </mxCell>
        <mxCell id="M_nd08v2FUncdbYxqgyS-14" value="Clicar no botão &#39;+&#39;, para adicionar foto" style="whiteSpace=wrap;html=1;fontSize=12;" vertex="1" parent="1">
          <mxGeometry x="570" y="110" width="120" height="60" as="geometry" />
        </mxCell>
        <mxCell id="M_nd08v2FUncdbYxqgyS-52" value="" style="edgeStyle=orthogonalEdgeStyle;rounded=0;orthogonalLoop=1;jettySize=auto;html=1;" edge="1" parent="1" source="M_nd08v2FUncdbYxqgyS-16" target="M_nd08v2FUncdbYxqgyS-20">
          <mxGeometry relative="1" as="geometry">
            <Array as="points">
              <mxPoint x="230" y="30" />
            </Array>
          </mxGeometry>
        </mxCell>
        <mxCell id="M_nd08v2FUncdbYxqgyS-16" value="Escolher uma foto na galeria." style="whiteSpace=wrap;html=1;fontSize=12;" vertex="1" parent="1">
          <mxGeometry x="570" width="120" height="60" as="geometry" />
        </mxCell>
        <mxCell id="M_nd08v2FUncdbYxqgyS-66" style="edgeStyle=orthogonalEdgeStyle;rounded=0;orthogonalLoop=1;jettySize=auto;html=1;exitX=0.5;exitY=0;exitDx=0;exitDy=0;entryX=1;entryY=0;entryDx=0;entryDy=0;" edge="1" parent="1" source="M_nd08v2FUncdbYxqgyS-20" target="M_nd08v2FUncdbYxqgyS-31">
          <mxGeometry relative="1" as="geometry">
            <Array as="points">
              <mxPoint x="230" y="-440" />
              <mxPoint x="1310" y="-440" />
            </Array>
          </mxGeometry>
        </mxCell>
        <mxCell id="M_nd08v2FUncdbYxqgyS-89" style="edgeStyle=orthogonalEdgeStyle;rounded=0;orthogonalLoop=1;jettySize=auto;html=1;exitX=1;exitY=0.5;exitDx=0;exitDy=0;entryX=0.5;entryY=0;entryDx=0;entryDy=0;" edge="1" parent="1" source="M_nd08v2FUncdbYxqgyS-20" target="M_nd08v2FUncdbYxqgyS-24">
          <mxGeometry relative="1" as="geometry">
            <Array as="points">
              <mxPoint x="400" y="-290" />
            </Array>
          </mxGeometry>
        </mxCell>
        <mxCell id="M_nd08v2FUncdbYxqgyS-20" value="Colocar filtro?" style="rhombus;whiteSpace=wrap;html=1;fontSize=10;" vertex="1" parent="1">
          <mxGeometry x="190" y="-330" width="80" height="80" as="geometry" />
        </mxCell>
        <mxCell id="M_nd08v2FUncdbYxqgyS-27" value="" style="edgeStyle=orthogonalEdgeStyle;rounded=0;orthogonalLoop=1;jettySize=auto;html=1;" edge="1" parent="1" source="M_nd08v2FUncdbYxqgyS-24" target="M_nd08v2FUncdbYxqgyS-26">
          <mxGeometry relative="1" as="geometry" />
        </mxCell>
        <mxCell id="M_nd08v2FUncdbYxqgyS-24" value="Sim" style="whiteSpace=wrap;html=1;fontSize=12;" vertex="1" parent="1">
          <mxGeometry x="340" y="-220" width="120" height="60" as="geometry" />
        </mxCell>
        <mxCell id="M_nd08v2FUncdbYxqgyS-86" style="edgeStyle=orthogonalEdgeStyle;rounded=0;orthogonalLoop=1;jettySize=auto;html=1;exitX=1;exitY=0.5;exitDx=0;exitDy=0;entryX=0.5;entryY=1;entryDx=0;entryDy=0;" edge="1" parent="1" source="M_nd08v2FUncdbYxqgyS-26" target="M_nd08v2FUncdbYxqgyS-28">
          <mxGeometry relative="1" as="geometry" />
        </mxCell>
        <mxCell id="M_nd08v2FUncdbYxqgyS-26" value="Escolher filtro" style="whiteSpace=wrap;html=1;fontSize=12;" vertex="1" parent="1">
          <mxGeometry x="340" y="-90" width="120" height="60" as="geometry" />
        </mxCell>
        <mxCell id="M_nd08v2FUncdbYxqgyS-65" value="" style="edgeStyle=orthogonalEdgeStyle;rounded=0;orthogonalLoop=1;jettySize=auto;html=1;" edge="1" parent="1" source="M_nd08v2FUncdbYxqgyS-28" target="M_nd08v2FUncdbYxqgyS-39">
          <mxGeometry relative="1" as="geometry">
            <Array as="points">
              <mxPoint x="630" y="-290" />
            </Array>
          </mxGeometry>
        </mxCell>
        <mxCell id="M_nd08v2FUncdbYxqgyS-73" style="edgeStyle=orthogonalEdgeStyle;rounded=0;orthogonalLoop=1;jettySize=auto;html=1;exitX=0.5;exitY=0;exitDx=0;exitDy=0;entryX=0.75;entryY=0;entryDx=0;entryDy=0;" edge="1" parent="1" source="M_nd08v2FUncdbYxqgyS-28" target="M_nd08v2FUncdbYxqgyS-31">
          <mxGeometry relative="1" as="geometry">
            <Array as="points">
              <mxPoint x="520" y="-410" />
              <mxPoint x="1280" y="-410" />
            </Array>
          </mxGeometry>
        </mxCell>
        <mxCell id="M_nd08v2FUncdbYxqgyS-28" value="Colocar Música?" style="rhombus;whiteSpace=wrap;html=1;fontSize=9;" vertex="1" parent="1">
          <mxGeometry x="480" y="-330" width="80" height="80" as="geometry" />
        </mxCell>
        <mxCell id="M_nd08v2FUncdbYxqgyS-44" value="" style="edgeStyle=orthogonalEdgeStyle;rounded=0;orthogonalLoop=1;jettySize=auto;html=1;" edge="1" parent="1" source="M_nd08v2FUncdbYxqgyS-31" target="M_nd08v2FUncdbYxqgyS-43">
          <mxGeometry relative="1" as="geometry" />
        </mxCell>
        <mxCell id="M_nd08v2FUncdbYxqgyS-31" value="Não" style="whiteSpace=wrap;html=1;fontSize=12;" vertex="1" parent="1">
          <mxGeometry x="1190" y="-220" width="120" height="60" as="geometry" />
        </mxCell>
        <mxCell id="M_nd08v2FUncdbYxqgyS-67" value="" style="edgeStyle=orthogonalEdgeStyle;rounded=0;orthogonalLoop=1;jettySize=auto;html=1;" edge="1" parent="1" source="M_nd08v2FUncdbYxqgyS-39" target="M_nd08v2FUncdbYxqgyS-41">
          <mxGeometry relative="1" as="geometry" />
        </mxCell>
        <mxCell id="M_nd08v2FUncdbYxqgyS-39" value="Sim" style="whiteSpace=wrap;html=1;fontSize=12;" vertex="1" parent="1">
          <mxGeometry x="570" y="-220" width="120" height="60" as="geometry" />
        </mxCell>
        <mxCell id="M_nd08v2FUncdbYxqgyS-48" value="" style="edgeStyle=orthogonalEdgeStyle;rounded=0;orthogonalLoop=1;jettySize=auto;html=1;" edge="1" parent="1" source="M_nd08v2FUncdbYxqgyS-41" target="M_nd08v2FUncdbYxqgyS-47">
          <mxGeometry relative="1" as="geometry">
            <Array as="points">
              <mxPoint x="740" y="-60" />
            </Array>
          </mxGeometry>
        </mxCell>
        <mxCell id="M_nd08v2FUncdbYxqgyS-41" value="Escolher Música" style="whiteSpace=wrap;html=1;" vertex="1" parent="1">
          <mxGeometry x="570" y="-90" width="120" height="60" as="geometry" />
        </mxCell>
        <mxCell id="M_nd08v2FUncdbYxqgyS-83" value="" style="edgeStyle=orthogonalEdgeStyle;rounded=0;orthogonalLoop=1;jettySize=auto;html=1;" edge="1" parent="1" source="M_nd08v2FUncdbYxqgyS-43" target="M_nd08v2FUncdbYxqgyS-3">
          <mxGeometry relative="1" as="geometry" />
        </mxCell>
        <mxCell id="M_nd08v2FUncdbYxqgyS-43" value="Postar Foto" style="whiteSpace=wrap;html=1;" vertex="1" parent="1">
          <mxGeometry x="1190" y="-10" width="120" height="60" as="geometry" />
        </mxCell>
        <mxCell id="M_nd08v2FUncdbYxqgyS-68" style="edgeStyle=orthogonalEdgeStyle;rounded=0;orthogonalLoop=1;jettySize=auto;html=1;exitX=0.5;exitY=0;exitDx=0;exitDy=0;entryX=0.5;entryY=0;entryDx=0;entryDy=0;" edge="1" parent="1" source="M_nd08v2FUncdbYxqgyS-47" target="M_nd08v2FUncdbYxqgyS-31">
          <mxGeometry relative="1" as="geometry">
            <mxPoint x="940" y="-400" as="sourcePoint" />
            <mxPoint x="1520" y="-400" as="targetPoint" />
            <Array as="points">
              <mxPoint x="740" y="-380" />
              <mxPoint x="1250" y="-380" />
            </Array>
          </mxGeometry>
        </mxCell>
        <mxCell id="M_nd08v2FUncdbYxqgyS-69" value="" style="edgeStyle=orthogonalEdgeStyle;rounded=0;orthogonalLoop=1;jettySize=auto;html=1;" edge="1" parent="1" source="M_nd08v2FUncdbYxqgyS-47" target="M_nd08v2FUncdbYxqgyS-50">
          <mxGeometry relative="1" as="geometry">
            <Array as="points">
              <mxPoint x="860" y="-290" />
            </Array>
          </mxGeometry>
        </mxCell>
        <mxCell id="M_nd08v2FUncdbYxqgyS-47" value="Colocar Texto" style="rhombus;whiteSpace=wrap;html=1;fontSize=10;" vertex="1" parent="1">
          <mxGeometry x="700" y="-330" width="80" height="80" as="geometry" />
        </mxCell>
        <mxCell id="M_nd08v2FUncdbYxqgyS-72" value="" style="edgeStyle=orthogonalEdgeStyle;rounded=0;orthogonalLoop=1;jettySize=auto;html=1;" edge="1" parent="1" source="M_nd08v2FUncdbYxqgyS-50" target="M_nd08v2FUncdbYxqgyS-71">
          <mxGeometry relative="1" as="geometry" />
        </mxCell>
        <mxCell id="M_nd08v2FUncdbYxqgyS-50" value="Sim" style="whiteSpace=wrap;html=1;fontSize=12;" vertex="1" parent="1">
          <mxGeometry x="800" y="-220" width="120" height="60" as="geometry" />
        </mxCell>
        <mxCell id="M_nd08v2FUncdbYxqgyS-75" value="" style="edgeStyle=orthogonalEdgeStyle;rounded=0;orthogonalLoop=1;jettySize=auto;html=1;" edge="1" parent="1" source="M_nd08v2FUncdbYxqgyS-71" target="M_nd08v2FUncdbYxqgyS-74">
          <mxGeometry relative="1" as="geometry">
            <Array as="points">
              <mxPoint x="990" y="-60" />
            </Array>
          </mxGeometry>
        </mxCell>
        <mxCell id="M_nd08v2FUncdbYxqgyS-71" value="Escolher Texto" style="whiteSpace=wrap;html=1;" vertex="1" parent="1">
          <mxGeometry x="800" y="-90" width="120" height="60" as="geometry" />
        </mxCell>
        <mxCell id="M_nd08v2FUncdbYxqgyS-77" style="edgeStyle=orthogonalEdgeStyle;rounded=0;orthogonalLoop=1;jettySize=auto;html=1;exitX=0.5;exitY=0;exitDx=0;exitDy=0;entryX=0.25;entryY=0;entryDx=0;entryDy=0;" edge="1" parent="1" source="M_nd08v2FUncdbYxqgyS-74" target="M_nd08v2FUncdbYxqgyS-31">
          <mxGeometry relative="1" as="geometry">
            <Array as="points">
              <mxPoint x="990" y="-360" />
              <mxPoint x="1220" y="-360" />
            </Array>
          </mxGeometry>
        </mxCell>
        <mxCell id="M_nd08v2FUncdbYxqgyS-79" value="" style="edgeStyle=orthogonalEdgeStyle;rounded=0;orthogonalLoop=1;jettySize=auto;html=1;" edge="1" parent="1" source="M_nd08v2FUncdbYxqgyS-74" target="M_nd08v2FUncdbYxqgyS-78">
          <mxGeometry relative="1" as="geometry" />
        </mxCell>
        <mxCell id="M_nd08v2FUncdbYxqgyS-74" value="Colocar&lt;br style=&quot;font-size: 10px;&quot;&gt;Emoji/&lt;br style=&quot;font-size: 10px;&quot;&gt;Enquetes/&lt;br style=&quot;font-size: 10px;&quot;&gt;Ect..." style="rhombus;whiteSpace=wrap;html=1;fontSize=10;" vertex="1" parent="1">
          <mxGeometry x="950" y="-330" width="80" height="80" as="geometry" />
        </mxCell>
        <mxCell id="M_nd08v2FUncdbYxqgyS-81" value="" style="edgeStyle=orthogonalEdgeStyle;rounded=0;orthogonalLoop=1;jettySize=auto;html=1;" edge="1" parent="1" source="M_nd08v2FUncdbYxqgyS-78" target="M_nd08v2FUncdbYxqgyS-80">
          <mxGeometry relative="1" as="geometry" />
        </mxCell>
        <mxCell id="M_nd08v2FUncdbYxqgyS-78" value="Sim" style="whiteSpace=wrap;html=1;fontSize=12;" vertex="1" parent="1">
          <mxGeometry x="1040" y="-220" width="120" height="60" as="geometry" />
        </mxCell>
        <mxCell id="M_nd08v2FUncdbYxqgyS-82" style="edgeStyle=orthogonalEdgeStyle;rounded=0;orthogonalLoop=1;jettySize=auto;html=1;exitX=0.5;exitY=1;exitDx=0;exitDy=0;entryX=0;entryY=0.5;entryDx=0;entryDy=0;" edge="1" parent="1" source="M_nd08v2FUncdbYxqgyS-80" target="M_nd08v2FUncdbYxqgyS-43">
          <mxGeometry relative="1" as="geometry" />
        </mxCell>
        <mxCell id="M_nd08v2FUncdbYxqgyS-80" value="Escolher&lt;br&gt;Emoji/&lt;br&gt;Enquetes/&lt;br&gt;Etc...&lt;br&gt;" style="whiteSpace=wrap;html=1;" vertex="1" parent="1">
          <mxGeometry x="1040" y="-90" width="120" height="60" as="geometry" />
        </mxCell>
      </root>
    </mxGraphModel>
  </diagram>
</mxfile>
